<?xml version="1.0" standalone="no"?>
<svg version="1.0" xmlns="http://www.w3.org/2000/svg"
 width="1200.000000pt" height="1200.000000pt" viewBox="0 0 1200.000000 1200.000000"
 preserveAspectRatio="xMidYMid meet">
<g transform="translate(0.000000,1200.000000) scale(0.100000,-0.100000)"
fill="#000000" stroke="none">
<path d="M6055 10915 c2 -36 1 -64 -3 -61 -4 2 -8 -28 -8 -67 -1 -39 -5 -72
-10 -74 -12 -4 -5 -277 7 -281 15 -6 11 -72 -5 -72 -16 0 -27 -55 -13 -69 6
-6 6 -20 -1 -38 -5 -16 -10 -78 -11 -138 -1 -60 -6 -112 -11 -115 -6 -4 -6
-19 0 -40 14 -48 12 -59 -5 -36 -8 11 -15 40 -16 65 0 25 -3 39 -6 31 -3 -8
-10 -18 -16 -21 -5 -4 -11 -36 -14 -72 -3 -37 -10 -64 -14 -61 -10 6 -11 -5
-11 -61 0 -94 2 -117 14 -113 26 9 48 -31 47 -84 0 -62 -16 -152 -18 -105 -1
18 -5 26 -12 21 -8 -5 -9 9 -5 47 5 35 4 49 -2 40 -8 -11 -11 -11 -16 0 -3 8
-4 2 -2 -13 2 -16 0 -28 -3 -28 -3 0 -5 -21 -4 -47 2 -35 0 -41 -5 -23 l-8 25
-12 -22 c-7 -12 -12 -28 -11 -35 0 -7 5 -4 10 7 10 23 2 -60 -11 -112 -8 -32
3 -55 14 -31 3 7 4 -14 1 -46 -6 -59 -5 -59 14 -42 19 17 20 17 19 -11 -1 -16
4 -38 11 -50 14 -27 15 -55 1 -33 -7 11 -10 -2 -10 -42 0 -32 -4 -58 -9 -58
-15 0 -23 -33 -10 -41 9 -5 8 -16 -4 -42 -20 -40 -21 -47 -8 -47 5 0 11 12 13
28 2 15 7 -27 12 -93 4 -66 4 -134 0 -149 -6 -25 -4 -28 10 -23 13 5 16 0 16
-32 0 -21 3 -60 7 -87 6 -45 5 -48 -10 -35 -10 7 -17 23 -17 35 0 31 -13 47
-30 36 -12 -7 -12 -12 3 -28 9 -10 14 -22 11 -25 -4 -4 -1 -14 6 -23 9 -10 14
-44 14 -96 0 -46 3 -73 7 -62 7 18 8 18 8 -2 1 -25 -28 -68 -29 -44 -1 8 -8
-12 -15 -45 -7 -33 -16 -69 -20 -80 -4 -14 -2 -12 9 5 10 16 16 20 16 10 1
-10 4 -9 10 5 8 18 10 16 14 -14 0 -5 4 -13 9 -17 9 -10 9 -58 0 -68 -4 -4 -6
-71 -4 -148 2 -91 0 -138 -7 -134 -5 3 -12 -7 -14 -24 -2 -16 -1 -27 3 -24 9
5 22 -33 15 -44 -3 -5 -2 -42 3 -83 4 -41 4 -91 -1 -113 -5 -23 -5 -60 2 -94
6 -32 7 -85 3 -122 l-7 -65 -13 50 -13 50 5 -57 c3 -31 8 -65 12 -75 6 -16 8
-15 15 7 4 14 6 -15 3 -65 -3 -57 -1 -81 4 -65 5 14 9 19 10 12 1 -7 6 -10 13
-6 8 5 9 -4 5 -32 -4 -21 -7 -47 -7 -57 0 -16 -2 -17 -15 -3 -8 8 -15 19 -15
25 0 7 -8 7 -25 -1 -25 -11 -34 -28 -15 -28 6 0 11 -15 11 -32 1 -24 3 -27 6
-10 2 12 11 22 19 22 17 0 18 -14 4 -41 -8 -13 -7 -19 0 -19 6 0 10 -15 9 -32
-2 -18 -1 -49 0 -68 2 -29 4 -32 11 -15 7 17 9 15 9 -11 1 -17 -2 -34 -6 -37
-3 -4 -5 -34 -4 -67 1 -38 -2 -60 -8 -60 -6 0 -12 12 -12 28 l-1 27 -8 -30
c-5 -18 -7 14 -6 85 1 63 -1 129 -5 145 -5 21 -7 11 -8 -37 0 -37 -5 -69 -11
-73 -6 -4 -6 -15 1 -32 5 -14 8 -69 5 -121 -3 -53 -1 -91 4 -86 5 5 10 23 13
39 2 17 5 -1 6 -39 1 -89 10 -81 12 12 1 40 5 72 9 72 13 0 -2 -274 -16 -295
-10 -14 -12 -38 -7 -87 4 -44 2 -68 -4 -68 -6 0 -13 -9 -16 -20 -3 -11 -1 -18
4 -14 5 3 9 -11 9 -30 0 -20 5 -36 10 -36 12 0 13 -78 1 -135 -4 -22 -19 -53
-34 -69 -15 -16 -24 -32 -21 -37 8 -14 24 -10 24 6 0 8 5 15 11 15 15 0 4
-163 -11 -168 -5 -2 -9 -25 -9 -50 1 -27 4 -36 6 -22 12 66 18 24 20 -136 1
-106 -2 -174 -7 -174 -13 0 -13 -57 0 -65 6 -3 10 -26 10 -51 0 -30 -4 -43
-11 -38 -8 4 -8 1 -2 -12 11 -21 3 -272 -17 -594 -9 -133 -10 -286 -5 -480 4
-157 9 -355 11 -440 7 -270 7 -622 1 -695 -4 -38 -6 -74 -6 -80 5 -183 5 -304
-1 -358 -3 -37 -4 -70 0 -72 9 -5 6 -147 -4 -170 -6 -16 -6 -17 3 -5 9 12 11
9 11 -15 0 -16 3 -54 6 -82 6 -45 4 -53 -10 -53 -9 0 -16 -4 -16 -10 0 -5 6
-7 14 -4 16 6 21 -18 36 -186 6 -63 8 -140 4 -170 -5 -30 -7 -64 -5 -74 2 -14
-2 -17 -13 -13 -13 5 -15 2 -10 -21 9 -35 13 -39 24 -22 6 8 10 11 11 5 0 -5
2 -17 4 -25 2 -8 9 -51 15 -95 14 -92 32 -138 61 -159 25 -17 46 -11 55 16 10
31 16 13 9 -26 -4 -20 -11 -33 -16 -30 -5 3 -9 -12 -9 -33 0 -46 16 -28 25 29
4 23 15 42 26 49 11 6 25 22 31 37 11 26 12 26 15 4 3 -12 8 -22 13 -22 5 0
11 -10 13 -23 2 -12 3 7 1 43 -3 39 -1 60 5 52 6 -11 9 -10 15 3 3 9 6 25 6
36 0 10 6 19 14 19 8 0 17 8 19 17 3 10 5 1 6 -19 0 -21 -3 -38 -9 -38 -5 0
-10 -17 -9 -37 0 -32 2 -34 9 -17 5 12 13 25 19 29 6 3 11 18 11 33 0 15 9 38
20 52 12 16 20 41 20 67 0 23 5 45 12 49 8 5 9 -11 5 -64 -4 -40 -9 -105 -12
-144 l-4 -73 18 75 c22 90 47 222 43 233 -1 5 4 28 13 53 21 61 33 250 16 239
-10 -6 -11 -3 -1 14 7 14 9 42 4 78 -5 40 -4 54 5 49 8 -5 8 0 3 16 -5 13 -3
58 4 108 10 70 10 87 -1 99 -11 11 -12 5 -8 -35 l5 -49 -19 28 c-19 26 -33 27
-33 1 0 -7 9 -22 21 -33 12 -11 18 -24 15 -29 -3 -6 -7 -30 -7 -54 -1 -23 -4
-47 -8 -53 -3 -5 -4 -21 -3 -35 2 -14 -1 -37 -7 -50 -8 -21 -10 -17 -7 25 1
28 5 55 9 61 3 6 2 32 -2 60 -5 27 -10 42 -11 34 -5 -39 -11 -64 -21 -79 -8
-12 -9 -9 -3 14 3 17 8 93 9 169 3 140 9 161 42 149 9 -4 13 6 13 36 0 38 -1
40 -19 29 -11 -6 -17 -18 -13 -26 4 -11 1 -13 -7 -7 -9 5 -11 18 -6 39 3 17 8
52 10 78 2 26 7 58 11 70 4 13 6 39 6 58 -2 55 10 91 28 80 11 -7 12 -13 2
-32 -12 -24 -13 -186 -1 -166 4 6 5 -18 4 -53 -2 -35 -1 -54 1 -41 3 12 8 20
12 18 4 -2 8 30 10 72 1 43 7 102 12 132 5 30 8 131 5 223 -3 124 -1 166 7
161 8 -5 9 -1 4 12 -5 10 -9 37 -10 59 -1 22 -3 60 -4 85 -2 35 -5 42 -13 30
-8 -11 -9 -3 -5 30 5 45 5 45 -9 15 -13 -28 -14 -22 -15 82 0 61 4 123 10 138
7 17 7 24 0 20 -6 -4 -10 15 -10 49 0 30 4 58 10 61 13 8 13 45 0 45 -5 0 -10
9 -10 21 0 11 5 17 10 14 6 -4 10 20 10 65 0 45 -4 69 -10 65 -6 -3 -10 3 -10
14 0 11 4 23 10 26 5 3 9 43 9 88 -1 45 0 87 2 92 1 6 -1 20 -5 33 -5 15 -2
31 8 47 20 30 20 36 2 29 -12 -5 -14 33 -15 235 0 185 2 241 12 241 8 0 9 3 1
8 -7 4 -13 78 -17 202 -4 107 -11 308 -17 445 -11 288 -27 1019 -24 1115 6
181 6 321 0 327 -3 3 -6 -38 -7 -93 -1 -121 -7 -215 -14 -222 -3 -3 -6 19 -6
49 -2 49 -2 51 -9 19 -5 -25 -8 -6 -9 65 -1 69 -4 95 -11 85 -7 -11 -10 -4
-10 28 0 23 7 54 16 67 11 16 15 42 13 77 -1 29 -1 79 -1 112 2 49 5 57 18 52
13 -5 15 -2 9 16 -13 41 -26 192 -20 226 7 36 25 34 25 -3 0 -13 5 -27 12 -31
8 -5 9 -2 5 10 -4 10 -7 28 -7 41 0 13 -8 31 -17 40 -13 13 -17 36 -17 99 0
71 -2 77 -10 44 -11 -46 -31 -51 -22 -7 3 17 6 38 6 46 0 9 6 13 15 9 14 -5
21 18 16 48 -1 5 -3 27 -4 47 -1 36 -2 37 -19 22 -17 -15 -18 -15 -12 14 4 21
2 32 -8 36 -12 4 -14 -6 -12 -51 l3 -57 -11 42 c-14 55 -4 109 22 116 12 3 20
14 21 29 l1 23 8 -25 c7 -23 8 -23 9 -3 1 12 -3 25 -9 28 -5 3 -10 17 -10 30
0 13 5 27 10 30 6 3 10 23 9 43 0 32 -1 34 -9 15 -5 -13 -11 -23 -14 -23 -3 0
-4 42 -4 93 1 58 3 79 7 57 6 -30 8 -26 14 35 3 39 9 81 12 95 l6 25 -15 -25
c-8 -14 -16 -36 -16 -50 l-1 -25 -11 23 c-13 26 -28 29 -28 5 0 -9 -3 -14 -6
-10 -3 3 -3 19 1 35 5 23 10 29 26 25 17 -5 18 -3 9 21 -14 37 -13 43 4 20 13
-17 15 -9 13 72 -2 72 -5 90 -15 86 -10 -3 -13 -19 -10 -56 3 -28 3 -40 1 -27
-4 19 -7 21 -14 10 -6 -9 -9 2 -9 36 0 28 -3 68 -6 90 -6 33 -4 38 7 28 19
-19 26 -16 42 17 17 32 14 52 -14 107 -20 40 -26 88 -9 78 6 -3 10 -1 10 5 0
6 4 9 9 5 11 -6 5 39 -8 64 -5 9 -9 57 -9 106 -1 84 0 88 13 60 l14 -30 0 35
c1 19 -4 42 -9 50 -8 13 -10 12 -10 -4 0 -11 -3 -16 -6 -13 -4 4 -6 37 -6 74
1 38 -2 84 -7 103 -5 22 -9 -61 -8 -228 0 -144 -3 -265 -7 -269 -6 -6 -8 97
-10 502 -1 154 1 191 7 138 4 -40 14 -86 21 -103 12 -30 13 -31 23 -8 5 13 6
34 2 48 -7 25 -7 25 -8 2 -1 -13 -5 -21 -10 -18 -5 4 -9 50 -8 104 0 53 -2
126 -6 162 -3 36 -3 58 1 50 10 -22 32 -23 32 -2 0 21 -29 64 -30 44 0 -7 -4
-11 -9 -7 -5 3 -12 -7 -14 -22 -3 -22 -4 -20 -6 10 -1 37 19 73 33 60 4 -4 6
7 4 25 -1 18 -5 32 -9 32 -4 0 -7 29 -8 65 0 48 3 65 13 65 17 0 30 111 27
228 -2 54 1 82 8 82 6 0 11 12 11 26 0 14 -4 23 -10 19 -13 -8 -13 21 1 46 15
29 4 56 -16 39 -12 -10 -15 -10 -15 1 0 27 12 59 20 54 5 -3 12 0 16 6 4 8 3
9 -4 5 -8 -5 -12 0 -12 13 0 12 -4 21 -10 21 -13 0 -13 33 1 47 12 12 -17 269
-31 278 -5 3 -10 -18 -12 -45 -2 -42 -1 -48 10 -33 17 24 15 2 -8 -77 -16 -56
-26 -61 -21 -9 1 8 -3 26 -8 40 -7 17 -10 19 -10 7 -1 -10 -5 -18 -11 -18 -17
0 -11 24 13 50 28 32 37 83 11 73 -15 -5 -16 -1 -12 35 5 32 3 39 -5 29 -19
-19 -24 -134 -14 -292 l6 -99 -20 33 c-21 34 -38 38 -21 4 6 -12 4 -26 -5 -43
l-15 -25 6 25 c3 14 2 37 -2 50 -5 18 -8 6 -12 -45 -5 -66 -6 -68 -18 -42 -9
20 -11 92 -9 253 2 179 0 224 -10 224 -9 0 -13 14 -13 44 0 24 -7 57 -15 72
-8 16 -15 51 -15 77 0 29 -4 46 -10 42 -6 -3 -7 1 -4 9 3 9 2 16 -4 16 -7 0
-9 -25 -7 -65z m32 -137 c-3 -8 -6 -5 -6 6 -1 11 2 17 5 13 3 -3 4 -12 1 -19z
m-21 -76 c-11 -10 -14 3 -7 38 l6 35 3 -33 c2 -19 1 -36 -2 -40z m171 -149
c-3 -10 -5 -4 -5 12 0 17 2 24 5 18 2 -7 2 -21 0 -30z m-140 -50 c-3 -10 -5
-4 -5 12 0 17 2 24 5 18 2 -7 2 -21 0 -30z m22 -35 c-1 -43 -3 -47 -8 -23 -6
28 -3 75 5 75 2 0 3 -24 3 -52z m166 -124 c-5 -33 -9 -43 -15 -33 -12 18 4 98
16 86 4 -3 3 -27 -1 -53z m-115 -164 c0 -5 -5 -10 -11 -10 -5 0 -7 5 -4 10 3
6 8 10 11 10 2 0 4 -4 4 -10z m130 -26 c0 -8 -4 -12 -10 -9 -5 3 -10 10 -10
16 0 5 5 9 10 9 6 0 10 -7 10 -16z m-91 -104 c0 -10 -3 -8 -9 5 -12 27 -12 43
0 25 5 -8 9 -22 9 -30z m101 -12 c0 -38 -5 -34 -13 10 -4 21 -3 31 3 27 6 -3
10 -20 10 -37z m-73 -30 c-3 -7 -5 -2 -5 12 0 14 2 19 5 13 2 -7 2 -19 0 -25z
m-268 -115 c1 -7 -3 -13 -9 -13 -5 0 -10 17 -9 38 1 33 2 34 9 12 4 -14 8 -31
9 -37z m5 -95 c6 -4 14 0 18 10 4 10 7 -2 7 -29 1 -33 -4 -49 -14 -52 -19 -8
-31 11 -16 26 6 6 11 15 11 21 0 5 -7 1 -15 -10 -8 -10 -15 -14 -15 -9 0 6 -5
3 -10 -5 -7 -11 -10 -5 -10 23 0 23 4 36 10 32 6 -3 10 2 11 12 0 14 2 15 6 3
3 -8 11 -18 17 -22z m303 -60 c-2 -13 -4 -5 -4 17 -1 22 1 32 4 23 2 -10 2
-28 0 -40z m-280 -65 c-3 -10 -5 -2 -5 17 0 19 2 27 5 18 2 -10 2 -26 0 -35z
m250 -15 c-3 -7 -5 -2 -5 12 0 14 2 19 5 13 2 -7 2 -19 0 -25z m30 -55 c-3
-10 -5 -2 -5 17 0 19 2 27 5 18 2 -10 2 -26 0 -35z m4 -205 c-2 -75 -11 -73
-11 2 0 35 3 60 7 57 3 -4 5 -30 4 -59z m-364 -15 c-3 -10 -5 -2 -5 17 0 19 2
27 5 18 2 -10 2 -26 0 -35z m340 -15 c-3 -7 -5 -2 -5 12 0 14 2 19 5 13 2 -7
2 -19 0 -25z m-20 -20 c-3 -8 -6 -5 -6 6 -1 11 2 17 5 13 3 -3 4 -12 1 -19z
m20 -140 c-3 -8 -6 -5 -6 6 -1 11 2 17 5 13 3 -3 4 -12 1 -19z m-247 -55 c0
-7 -4 -13 -10 -13 -5 0 -10 12 -10 28 0 21 2 24 10 12 5 -8 10 -21 10 -27z
m247 -25 c-3 -8 -6 -5 -6 6 -1 11 2 17 5 13 3 -3 4 -12 1 -19z m-270 -140 c-3
-8 -6 -5 -6 6 -1 11 2 17 5 13 3 -3 4 -12 1 -19z m260 -285 c-2 -16 -4 -5 -4
22 0 28 2 40 4 28 2 -13 2 -35 0 -50z m-277 32 c0 -8 -2 -15 -4 -15 -2 0 -6 7
-10 15 -3 8 -1 15 4 15 6 0 10 -7 10 -15z m6 -112 c-10 -10 -19 5 -10 18 6 11
8 11 12 0 2 -7 1 -15 -2 -18z m334 -85 c0 -17 -2 -20 -9 -9 -7 11 -10 9 -14
-10 -2 -13 -5 -2 -6 24 -1 43 1 47 14 33 8 -8 15 -25 15 -38z m17 -35 c-3 -10
-5 -4 -5 12 0 17 2 24 5 18 2 -7 2 -21 0 -30z m-48 -186 l-1 -52 -9 40 c-11
55 -11 77 1 70 6 -3 9 -30 9 -58z m-292 -59 c-3 -7 -5 -2 -5 12 0 14 2 19 5
13 2 -7 2 -19 0 -25z m-27 -41 c0 -16 -18 3 -23 25 -6 22 -5 22 8 4 8 -11 15
-24 15 -29z m27 -19 c-3 -7 -5 -2 -5 12 0 14 2 19 5 13 2 -7 2 -19 0 -25z
m260 -170 c-3 -7 -5 -2 -5 12 0 14 2 19 5 13 2 -7 2 -19 0 -25z m53 -143 c0
-48 -15 -61 -22 -20 -3 13 -1 22 3 19 5 -3 9 6 9 20 0 14 2 26 5 26 3 0 5 -20
5 -45z m-5 -95 c-4 -17 -9 -29 -12 -26 -3 2 -2 19 2 36 4 17 9 29 12 26 3 -2
2 -19 -2 -36z m-138 -62 c-3 -8 -6 -5 -6 6 -1 11 2 17 5 13 3 -3 4 -12 1 -19z
m-170 -80 c-3 -7 -5 -2 -5 12 0 14 2 19 5 13 2 -7 2 -19 0 -25z m220 10 c-3
-8 -6 -5 -6 6 -1 11 2 17 5 13 3 -3 4 -12 1 -19z m-215 -125 c-5 -76 -10 -83
-11 -15 0 34 2 62 7 62 4 0 6 -21 4 -47z m319 -199 c13 -16 1 -40 -12 -27 -5
5 -10 43 -10 84 -1 46 -4 66 -9 54 -7 -18 -8 -18 -15 7 -4 14 -5 35 -2 45 4
14 5 14 6 -4 0 -13 5 -23 10 -23 6 0 9 10 9 23 -1 12 0 36 2 52 2 17 6 -21 7
-84 2 -63 8 -120 14 -127z m-336 86 c1 -10 -2 -17 -7 -14 -4 3 -8 15 -8 26 0
26 13 15 15 -12z m7 -95 c-2 -14 -6 -25 -8 -25 -2 0 -4 11 -4 25 0 14 4 25 9
25 4 0 6 -11 3 -25z m264 -21 c-8 -31 -26 -22 -26 12 0 14 4 22 10 19 6 -3 10
0 11 7 0 11 2 11 6 0 3 -7 2 -24 -1 -38z m-249 -6 c-3 -7 -5 -2 -5 12 0 14 2
19 5 13 2 -7 2 -19 0 -25z m-20 -120 c-2 -18 -4 -4 -4 32 0 36 2 50 4 33 2
-18 2 -48 0 -65z m20 -55 c-2 -16 -4 -3 -4 27 0 30 2 43 4 28 2 -16 2 -40 0
-55z m342 -25 c-1 -31 -1 -31 -8 -8 -5 14 -6 28 -4 33 9 15 13 6 12 -25z
m-372 -230 c-3 -8 -6 -5 -6 6 -1 11 2 17 5 13 3 -3 4 -12 1 -19z m60 -75 c-3
-10 -5 -2 -5 17 0 19 2 27 5 18 2 -10 2 -26 0 -35z m330 -385 c-2 -13 -4 -3
-4 22 0 25 2 35 4 23 2 -13 2 -33 0 -45z m2 -315 c-1 -90 -4 -112 -8 -76 -6
51 -2 203 5 203 2 0 3 -57 3 -127z m-412 60 c-4 -17 -4 -17 -12 0 -4 9 -4 25
0 35 8 16 8 16 12 0 3 -10 3 -26 0 -35z m417 -573 c-1 -40 -14 -52 -14 -13 0
23 6 43 14 43 1 0 1 -14 0 -30z m-357 -532 c-3 -7 -5 -2 -5 12 0 14 2 19 5 13
2 -7 2 -19 0 -25z m410 -1190 c-3 -8 -6 -5 -6 6 -1 11 2 17 5 13 3 -3 4 -12 1
-19z m0 -60 c-3 -8 -6 -5 -6 6 -1 11 2 17 5 13 3 -3 4 -12 1 -19z m-10 -890
c-3 -7 -5 -2 -5 12 0 14 2 19 5 13 2 -7 2 -19 0 -25z m-10 -40 c-3 -8 -6 -5
-6 6 -1 11 2 17 5 13 3 -3 4 -12 1 -19z m33 -128 c0 -5 -5 -10 -11 -10 -5 0
-7 5 -4 10 3 6 8 10 11 10 2 0 4 -4 4 -10z m3 -47 c-7 -2 -13 -12 -13 -20 0
-9 -3 -14 -6 -10 -10 10 4 37 18 36 10 0 10 -2 1 -6z m-366 -105 c-3 -7 -5 -2
-5 12 0 14 2 19 5 13 2 -7 2 -19 0 -25z m0 -80 c-3 -8 -6 -5 -6 6 -1 11 2 17
5 13 3 -3 4 -12 1 -19z m0 -135 c-2 -16 -4 -5 -4 22 0 28 2 40 4 28 2 -13 2
-35 0 -50z m270 -95 c-2 -13 -4 -5 -4 17 -1 22 1 32 4 23 2 -10 2 -28 0 -40z
m-270 10 c-3 -7 -5 -2 -5 12 0 14 2 19 5 13 2 -7 2 -19 0 -25z m265 -93 c-6
-34 -12 -32 -12 6 0 16 4 28 9 25 4 -3 6 -17 3 -31z m-21 -112 c-12 -20 -14
-14 -5 12 4 9 9 14 11 11 3 -2 0 -13 -6 -23z m-231 3 c0 -3 -4 -8 -10 -11 -5
-3 -10 -1 -10 4 0 6 5 11 10 11 6 0 10 -2 10 -4z m270 -33 c0 -39 -24 -115
-34 -106 -4 4 -11 1 -16 -7 -7 -11 -10 0 -10 33 0 30 4 46 10 42 6 -3 10 -2
10 4 0 20 20 61 30 61 5 0 10 -12 10 -27z m11 -210 c-9 -16 -10 -15 -11 9 0
14 3 35 8 45 6 15 8 14 10 -9 2 -15 -1 -35 -7 -45z m26 -35 c-2 -13 -4 -3 -4
22 0 25 2 35 4 23 2 -13 2 -33 0 -45z m-108 15 c-7 -10 -15 -20 -16 -22 -2 -2
-3 5 -3 17 0 14 6 22 16 22 14 0 15 -3 3 -17z m-12 -55 c-3 -8 -6 -5 -6 6 -1
11 2 17 5 13 3 -3 4 -12 1 -19z m106 -21 c9 5 9 3 1 -8 -7 -8 -14 -23 -17 -34
-2 -11 -5 3 -4 30 0 28 2 40 4 27 3 -14 9 -20 16 -15z m-76 -99 c-2 -13 -4 -5
-4 17 -1 22 1 32 4 23 2 -10 2 -28 0 -40z"/>
<path d="M6152 10580 c0 -14 2 -19 5 -12 2 6 2 18 0 25 -3 6 -5 1 -5 -13z"/>
<path d="M6343 9965 c0 -22 2 -30 4 -17 2 12 2 30 0 40 -3 9 -5 -1 -4 -23z"/>
<path d="M6314 9734 c-13 -5 -9 -81 6 -118 6 -15 9 1 9 52 1 39 0 72 -1 71 -2
0 -8 -3 -14 -5z"/>
<path d="M6342 9720 c0 -14 2 -19 5 -12 2 6 2 18 0 25 -3 6 -5 1 -5 -13z"/>
<path d="M6323 9320 c0 -36 2 -50 4 -32 2 17 2 47 0 65 -2 17 -4 3 -4 -33z"/>
<path d="M5896 9162 c-7 -46 -2 -51 16 -15 11 23 12 32 2 40 -9 9 -13 3 -18
-25z"/>
<path d="M5890 9100 c0 -5 5 -10 10 -10 6 0 10 5 10 10 0 6 -4 10 -10 10 -5 0
-10 -4 -10 -10z"/>
<path d="M6326 9034 c-4 -9 -4 -19 -1 -22 2 -3 7 3 11 12 4 9 4 19 1 22 -2 3
-7 -3 -11 -12z"/>
<path d="M5882 8830 c0 -14 2 -19 5 -12 2 6 2 18 0 25 -3 6 -5 1 -5 -13z"/>
<path d="M5890 8721 c0 -6 5 -13 10 -16 6 -3 10 1 10 9 0 9 -4 16 -10 16 -5 0
-10 -4 -10 -9z"/>
<path d="M5880 8479 c0 -5 5 -7 10 -4 6 3 10 8 10 11 0 2 -4 4 -10 4 -5 0 -10
-5 -10 -11z"/>
<path d="M5911 8384 c0 -11 3 -14 6 -6 3 7 2 16 -1 19 -3 4 -6 -2 -5 -13z"/>
<path d="M5823 8265 c0 -8 4 -12 9 -9 4 3 8 9 8 15 0 5 -4 9 -8 9 -5 0 -9 -7
-9 -15z"/>
<path d="M5870 8259 c0 -5 5 -7 10 -4 6 3 10 8 10 11 0 2 -4 4 -10 4 -5 0 -10
-5 -10 -11z"/>
<path d="M5871 8144 c0 -11 3 -14 6 -6 3 7 2 16 -1 19 -3 4 -6 -2 -5 -13z"/>
<path d="M6370 8095 c0 -8 5 -15 10 -15 6 0 10 7 10 15 0 8 -4 15 -10 15 -5 0
-10 -7 -10 -15z"/>
<path d="M5872 8050 c0 -14 2 -19 5 -12 2 6 2 18 0 25 -3 6 -5 1 -5 -13z"/>
<path d="M5904 8052 c-14 -22 -7 -42 12 -35 15 5 19 38 6 47 -4 2 -13 -3 -18
-12z"/>
<path d="M5858 7989 c-3 -9 -2 -22 2 -30 13 -19 18 -8 10 21 -4 19 -7 21 -12
9z"/>
<path d="M5901 7974 c0 -11 3 -14 6 -6 3 7 2 16 -1 19 -3 4 -6 -2 -5 -13z"/>
<path d="M6395 7790 c-3 -5 -1 -10 4 -10 6 0 11 5 11 10 0 6 -2 10 -4 10 -3 0
-8 -4 -11 -10z"/>
<path d="M5893 7730 c0 -25 2 -35 4 -22 2 12 2 32 0 45 -2 12 -4 2 -4 -23z"/>
<path d="M5892 7600 c0 -14 2 -19 5 -12 2 6 2 18 0 25 -3 6 -5 1 -5 -13z"/>
<path d="M5910 7589 c0 -19 5 -41 10 -49 7 -10 8 -1 4 30 -8 56 -14 64 -14 19z"/>
<path d="M6397 7563 c-10 -10 -8 -25 2 -18 5 3 12 -9 14 -27 3 -29 4 -28 5 10
2 39 -5 51 -21 35z"/>
<path d="M5892 7520 c0 -19 2 -27 5 -17 2 9 2 25 0 35 -3 9 -5 1 -5 -18z"/>
<path d="M5913 7485 c0 -22 2 -30 4 -17 2 12 2 30 0 40 -3 9 -5 -1 -4 -23z"/>
<path d="M6391 7424 c0 -11 3 -14 6 -6 3 7 2 16 -1 19 -3 4 -6 -2 -5 -13z"/>
<path d="M5893 7240 c0 -41 2 -58 4 -37 2 20 2 54 0 75 -2 20 -4 3 -4 -38z"/>
<path d="M5861 7234 c0 -11 3 -14 6 -6 3 7 2 16 -1 19 -3 4 -6 -2 -5 -13z"/>
<path d="M5910 7168 c0 -23 3 -29 9 -19 8 12 4 51 -5 51 -2 0 -4 -15 -4 -32z"/>
<path d="M6366 7185 c-3 -8 -1 -15 4 -15 6 0 10 7 10 15 0 8 -2 15 -4 15 -2 0
-6 -7 -10 -15z"/>
<path d="M6377 6973 c-4 -3 -7 -16 -7 -27 0 -19 1 -19 17 -3 12 11 14 20 7 27
-6 6 -13 7 -17 3z"/>
<path d="M6352 6950 c0 -14 2 -19 5 -12 2 6 2 18 0 25 -3 6 -5 1 -5 -13z"/>
<path d="M6349 6823 c0 -38 -2 -75 -4 -84 -1 -9 1 -23 6 -30 5 -9 9 24 9 84 0
53 -2 97 -5 97 -3 0 -5 -30 -6 -67z"/>
<path d="M5840 6739 c0 -5 5 -7 10 -4 6 3 10 8 10 11 0 2 -4 4 -10 4 -5 0 -10
-5 -10 -11z"/>
<path d="M5811 6714 c0 -11 3 -14 6 -6 3 7 2 16 -1 19 -3 4 -6 -2 -5 -13z"/>
<path d="M5801 6534 c0 -11 3 -14 6 -6 3 7 2 16 -1 19 -3 4 -6 -2 -5 -13z"/>
<path d="M5906 6514 c-8 -22 -8 -72 2 -77 4 -3 8 17 10 44 3 50 -1 61 -12 33z"/>
<path d="M6400 6500 c-8 -5 -11 -12 -7 -16 4 -4 13 -2 19 4 15 15 7 24 -12 12z"/>
<path d="M5831 6374 c0 -11 3 -14 6 -6 3 7 2 16 -1 19 -3 4 -6 -2 -5 -13z"/>
<path d="M5877 6336 c-4 -10 -5 -21 -2 -24 9 -9 17 6 13 25 -3 17 -4 17 -11
-1z"/>
<path d="M5827 6305 c-3 -17 -1 -34 3 -39 14 -14 24 22 13 47 -9 21 -10 20
-16 -8z"/>
<path d="M6392 6290 c0 -14 2 -19 5 -12 2 6 2 18 0 25 -3 6 -5 1 -5 -13z"/>
<path d="M5883 6225 c0 -22 2 -30 4 -17 2 12 2 30 0 40 -3 9 -5 -1 -4 -23z"/>
<path d="M5912 5995 c0 -16 2 -22 5 -12 2 9 2 23 0 30 -3 6 -5 -1 -5 -18z"/>
<path d="M5841 5995 c0 -11 4 -29 9 -40 8 -18 9 -18 9 5 0 14 -4 32 -9 40 -8
12 -10 12 -9 -5z"/>
<path d="M5847 5740 c6 -118 13 -144 13 -53 0 33 3 82 6 109 4 33 2 44 -4 35
-8 -11 -10 -11 -15 0 -3 8 -3 -33 0 -91z"/>
<path d="M5865 5610 c3 -5 8 -10 11 -10 2 0 4 5 4 10 0 6 -5 10 -11 10 -5 0
-7 -4 -4 -10z"/>
<path d="M5847 5533 c-3 -16 -1 -35 4 -43 6 -10 8 -2 9 28 0 48 -5 55 -13 15z"/>
<path d="M5880 5495 c0 -14 2 -25 4 -25 2 0 6 11 8 25 3 14 1 25 -3 25 -5 0
-9 -11 -9 -25z"/>
<path d="M5902 5420 c0 -14 2 -19 5 -12 2 6 2 18 0 25 -3 6 -5 1 -5 -13z"/>
<path d="M5812 5370 c0 -14 2 -19 5 -12 2 6 2 18 0 25 -3 6 -5 1 -5 -13z"/>
<path d="M5839 5347 c-4 -28 -2 -36 8 -33 7 3 13 -1 13 -9 0 -8 5 -15 10 -15
6 0 10 17 9 38 0 20 -3 31 -6 25 -8 -20 -21 -15 -25 10 -3 15 -5 11 -9 -16z"/>
<path d="M5854 5215 c-3 -8 -1 -27 4 -42 10 -27 10 -26 11 15 1 43 -5 54 -15
27z"/>
<path d="M5861 5053 c-7 -21 -15 -44 -18 -52 -3 -8 0 -12 7 -9 7 2 19 24 26
49 16 53 16 49 6 49 -5 0 -14 -17 -21 -37z"/>
<path d="M5877 5000 c-3 -11 -1 -33 3 -48 7 -23 8 -21 9 21 1 50 -3 60 -12 27z"/>
<path d="M5866 4762 c-2 -4 -1 -14 5 -22 7 -12 9 -10 9 8 0 23 -5 28 -14 14z"/>
<path d="M6463 4295 c0 -27 2 -38 4 -22 2 15 2 37 0 50 -2 12 -4 0 -4 -28z"/>
<path d="M6452 3785 c0 -16 2 -22 5 -12 2 9 2 23 0 30 -3 6 -5 -1 -5 -18z"/>
<path d="M6442 3735 c0 -11 4 -31 8 -45 6 -20 8 -21 8 -5 0 11 -4 31 -8 45 -6
20 -8 21 -8 5z"/>
<path d="M6422 3610 c0 -14 2 -19 5 -12 2 6 2 18 0 25 -3 6 -5 1 -5 -13z"/>
<path d="M6443 3545 c0 -22 2 -30 4 -17 2 12 2 30 0 40 -3 9 -5 -1 -4 -23z"/>
<path d="M6426 3394 c-4 -9 -4 -19 -2 -21 8 -8 26 8 26 23 0 19 -16 18 -24 -2z"/>
<path d="M5886 3153 c-6 -14 -5 -15 5 -6 7 7 10 15 7 18 -3 3 -9 -2 -12 -12z"/>
<path d="M5861 2804 c0 -11 3 -14 6 -6 3 7 2 16 -1 19 -3 4 -6 -2 -5 -13z"/>
<path d="M5861 2754 c0 -11 3 -14 6 -6 3 7 2 16 -1 19 -3 4 -6 -2 -5 -13z"/>
<path d="M5863 2605 c-3 -9 -3 -18 -1 -21 3 -3 8 4 11 16 6 23 -1 27 -10 5z"/>
<path d="M6382 2590 c0 -14 2 -19 5 -12 2 6 2 18 0 25 -3 6 -5 1 -5 -13z"/>
<path d="M6446 2475 c-3 -9 -6 -26 -5 -38 1 -14 4 -9 9 13 9 37 7 52 -4 25z"/>
<path d="M6411 2438 c0 -13 4 -32 9 -43 7 -16 9 -12 7 18 0 21 -5 41 -9 43 -4
3 -8 -5 -7 -18z"/>
<path d="M6402 2350 c0 -14 2 -19 5 -12 2 6 2 18 0 25 -3 6 -5 1 -5 -13z"/>
<path d="M5899 1898 c-6 -24 -5 -70 2 -74 5 -3 9 13 9 35 0 23 -2 41 -5 41 -3
0 -5 -1 -6 -2z"/>
<path d="M5877 1853 c-10 -10 -8 -43 2 -43 5 0 8 11 7 25 0 14 -1 25 -2 25 0
0 -4 -3 -7 -7z"/>
<path d="M5830 1779 c0 -2 -6 -24 -14 -49 -8 -26 -10 -53 -5 -65 7 -18 8 -17
7 5 -1 14 4 43 10 64 6 22 9 42 7 45 -3 2 -5 2 -5 0z"/>
<path d="M5901 1564 c0 -11 3 -14 6 -6 3 7 2 16 -1 19 -3 4 -6 -2 -5 -13z"/>
<path d="M5910 1503 c0 -26 1 -26 15 -7 19 25 19 34 0 34 -10 0 -15 -10 -15
-27z"/>
<path d="M5902 1445 c0 -16 2 -22 5 -12 2 9 2 23 0 30 -3 6 -5 -1 -5 -18z"/>
<path d="M5921 1368 c0 -39 3 -48 9 -33 12 28 12 85 0 85 -5 0 -10 -24 -9 -52z"/>
</g>
</svg>
