<?xml version="1.0" standalone="no"?>
<!DOCTYPE svg PUBLIC "-//W3C//DTD SVG 20010904//EN"
 "http://www.w3.org/TR/2001/REC-SVG-20010904/DTD/svg10.dtd">
<svg version="1.0" xmlns="http://www.w3.org/2000/svg"
 width="1024.000000pt" height="1024.000000pt" viewBox="0 0 1024.000000 1024.000000"
 preserveAspectRatio="xMidYMid meet">

<g transform="translate(0.000000,1024.000000) scale(0.100000,-0.100000)"
fill="#000000" stroke="none">
<path d="M5 10228 c-3 -7 -4 -2310 -3 -5118 l3 -5105 5115 0 5115 0 0 5115 0
5115 -5113 3 c-4085 2 -5114 0 -5117 -10z m3407 -2163 c197 -34 436 -140 696
-308 l93 -60 92 22 c291 70 549 96 902 88 267 -5 404 -20 630 -68 l100 -21
105 67 c136 85 361 196 475 234 95 32 242 61 304 61 75 0 78 -3 116 -120 79
-247 94 -512 39 -723 l-15 -58 67 -77 c225 -258 337 -550 351 -917 9 -241 -21
-593 -67 -780 -5 -22 -10 -43 -10 -48 0 -4 91 -4 203 -1 386 12 887 -21 1297
-87 138 -22 179 -34 163 -50 -7 -7 -60 -2 -159 15 -374 63 -734 88 -1193 84
l-323 -3 -24 -65 c-13 -36 -24 -66 -24 -67 0 -2 35 -3 78 -3 96 0 318 -15 522
-36 516 -51 1154 -183 1109 -229 -2 -2 -76 14 -164 36 -388 96 -832 160 -1295
189 -91 5 -187 10 -215 10 l-50 0 -39 -76 c-122 -237 -328 -417 -621 -539
-175 -73 -382 -127 -640 -164 -77 -12 -145 -21 -151 -21 -6 0 24 -35 66 -78
88 -90 145 -192 182 -327 21 -77 22 -104 28 -655 5 -511 8 -580 23 -620 27
-70 86 -141 147 -176 115 -65 140 -116 78 -155 -29 -18 -43 -20 -117 -15 -253
18 -405 107 -474 279 -21 50 -22 72 -27 552 -5 487 -6 501 -28 555 -12 31 -35
71 -52 90 l-30 35 3 -625 c3 -565 5 -631 21 -685 26 -89 62 -157 102 -199 46
-48 61 -98 40 -132 -23 -33 -55 -39 -136 -20 -195 44 -338 181 -396 381 -15
53 -18 128 -21 688 l-5 627 -48 0 -48 0 -5 -622 c-5 -693 -4 -688 -74 -820
-67 -127 -209 -230 -358 -258 -73 -14 -120 -3 -130 31 -10 31 11 86 49 125 42
43 79 117 103 206 15 55 17 140 20 687 l4 625 -22 -20 c-30 -27 -64 -99 -78
-162 -7 -35 -11 -206 -11 -495 0 -478 -6 -539 -54 -621 -78 -132 -226 -206
-447 -222 -74 -5 -88 -3 -116 15 -61 38 -39 91 58 142 73 39 112 82 153 169
l31 65 3 347 c2 192 -1 348 -5 348 -4 0 -46 -7 -93 -16 -118 -21 -343 -21
-445 1 -148 31 -279 99 -384 198 -55 53 -134 172 -160 242 -76 204 -204 379
-341 467 -63 40 -127 102 -136 130 -15 49 89 88 188 69 183 -33 319 -135 454
-338 156 -234 322 -333 557 -333 101 0 194 16 291 50 85 29 103 43 110 87 4
21 28 80 52 132 37 75 61 109 123 172 l78 79 -31 4 c-406 61 -616 118 -842
226 -227 109 -430 282 -554 473 -74 113 -41 103 -295 87 -333 -21 -681 -63
-965 -116 -116 -21 -426 -92 -483 -110 -14 -4 -18 -1 -15 12 4 20 61 38 288
89 345 77 773 134 1166 156 120 7 220 13 222 14 1 1 -11 32 -28 68 l-30 67
-323 0 c-452 0 -791 -25 -1151 -86 -99 -17 -152 -22 -159 -15 -20 20 69 40
332 76 319 43 822 71 1114 62 145 -5 178 -3 174 7 -15 38 -48 160 -62 226 -45
213 -60 612 -30 795 40 248 137 463 301 665 l52 65 -19 57 c-45 133 -61 357
-38 525 21 160 83 361 114 373 31 13 94 11 187 -5z"/>
<path d="M4070 6323 c-102 -16 -187 -40 -259 -75 -151 -72 -307 -253 -381
-443 l-35 -90 1 -175 c0 -212 19 -302 94 -456 147 -303 459 -473 990 -539 327
-40 1057 -40 1385 1 327 40 558 135 706 290 154 161 224 355 236 654 5 136 3
165 -15 236 -54 213 -224 434 -404 525 -155 78 -380 96 -819 63 -300 -22 -649
-22 -936 0 -191 14 -498 20 -563 9z m207 -312 c231 -105 326 -501 188 -787
-112 -232 -339 -290 -498 -125 -162 166 -199 489 -83 718 47 94 96 146 168
182 74 38 158 42 225 12z m1932 -12 c141 -71 231 -258 231 -479 0 -173 -45
-308 -135 -408 -160 -178 -392 -129 -509 108 -91 187 -87 447 11 620 96 170
255 232 402 159z m-1052 -864 c67 -47 30 -165 -52 -165 -57 0 -106 70 -86 123
20 52 92 74 138 42z m-196 -296 c18 -45 72 -81 128 -87 62 -6 120 23 152 75
27 44 37 53 56 46 29 -11 7 -77 -44 -125 -86 -82 -226 -76 -310 13 -43 46 -57
84 -37 103 20 20 40 11 55 -25z"/>
<path d="M4105 5836 c-46 -20 -110 -96 -134 -160 -70 -188 -6 -422 134 -487
51 -23 89 -23 140 0 54 25 99 74 131 146 58 125 40 324 -39 427 -60 79 -153
109 -232 74z"/>
<path d="M6009 5830 c-176 -93 -205 -444 -51 -598 156 -156 367 7 366 283 -1
190 -104 336 -236 335 -23 -1 -59 -10 -79 -20z"/>
<path d="M2818 4459 c-21 -12 -23 -40 -6 -57 17 -17 74 -15 92 4 21 21 20 30
-6 48 -26 18 -55 20 -80 5z"/>
<path d="M2982 4358 c-20 -20 -14 -48 13 -60 51 -23 121 27 81 58 -24 17 -78
18 -94 2z"/>
<path d="M3102 4243 c-24 -10 -33 -40 -16 -57 18 -19 75 -21 92 -4 38 38 -19
84 -76 61z"/>
<path d="M3180 4085 c-28 -34 29 -78 75 -57 55 25 38 72 -25 72 -21 0 -43 -7
-50 -15z"/>
<path d="M3298 3959 c-22 -12 -23 -42 -4 -58 20 -17 77 -10 90 12 24 38 -41
73 -86 46z"/>
<path d="M3450 3847 c-33 -17 -32 -48 2 -64 48 -23 111 19 77 52 -22 21 -52
25 -79 12z"/>
<path d="M4035 3794 c-20 -21 -15 -35 18 -54 49 -27 109 16 77 55 -17 20 -75
19 -95 -1z"/>
<path d="M3636 3764 c-44 -43 24 -86 85 -54 38 21 10 70 -41 70 -16 0 -36 -7
-44 -16z"/>
<path d="M3838 3769 c-21 -12 -23 -40 -6 -57 25 -25 108 -8 108 22 0 36 -64
58 -102 35z"/>
</g>
</svg>
