<?xml version="1.0" encoding="utf-8"?>
<!-- Generator: Adobe Illustrator 25.1.0, SVG Export Plug-In . SVG Version: 6.00 Build 0)  -->
<svg version="1.0" id="Layer_1" xmlns="http://www.w3.org/2000/svg" xmlns:xlink="http://www.w3.org/1999/xlink" x="0px" y="0px"
	 viewBox="0 0 280 300" enable-background="new 0 0 280 300" xml:space="preserve">
<g>
</g>
<g>
	<path fill="#E92D2F" stroke="#E92D2F" stroke-width="0.0938" stroke-miterlimit="10" d="M155.88,34.94
		c3.61,4.11,4.8,9.99,3.77,15.3c-1.11,5.96-4.42,11.22-8.3,15.76c-3.11,3.65-6.69,6.88-10.42,9.88c-4.34,3.5-8.61,7.26-11.34,12.18
		c-2.31,4-2.84,8.92-1.27,13.26c2.58,7.46,8.57,12.99,11.84,20.03c-3.61-3.19-7.15-6.5-10.46-9.99c-3.46-3.69-6.73-7.61-8.88-12.22
		c-1.46-3.23-2.11-7-1-10.42c1.11-3.5,3.61-6.3,6.11-8.92c6.96-6.96,15.53-12.07,22.33-19.14c3.77-3.88,6.88-8.53,7.96-13.88
		C157.11,42.86,156.69,38.82,155.88,34.94L155.88,34.94z"/>
	<path fill="#E92D2F" stroke="#E92D2F" stroke-width="0.0938" stroke-miterlimit="10" d="M150.19,78.72
		c7.46-5.5,16.18-8.99,25.02-11.53c-7,4.46-14.3,8.53-20.33,14.26c-2.19,2.11-4.27,4.54-5.23,7.5c-0.73,2.19-0.42,4.61,0.46,6.69
		c1.61,3.69,4.34,6.69,6.42,10.07c1.77,2.88,2.08,6.57,0.73,9.69c-2.04,4.57-6.04,7.92-10.19,10.57c-0.54,0.31-1,0.88-1.65,0.96
		c2.77-2.5,4.92-6.03,4.84-9.84c-0.08-2.84-1.65-5.34-3.5-7.38c-3.81-4.54-7-10.3-6.34-16.41
		C141.09,87.17,145.47,82.25,150.19,78.72L150.19,78.72z"/>
	<path fill="#0774BA" stroke="#0774BA" stroke-width="0.0938" stroke-miterlimit="10" d="M176.64,123.15
		c1.61-1.96,4.19-2.46,6.53-2.77c4.07-0.54,8.42,0.5,11.49,3.31c2.54,2.27,3.96,5.8,3.42,9.22c-0.58,3.96-3.23,7.26-6.23,9.76
		c-5.42,4.34-12.11,6.88-18.8,8.57c0.38-0.42,0.81-0.81,1.31-1.11c5.07-2.73,10.11-5.92,13.84-10.38c2.27-2.77,4.04-6.38,3.31-10.03
		c-0.77-4.23-4.88-7.3-9.07-7.53C180.44,122,178.56,122.77,176.64,123.15L176.64,123.15z"/>
	<path fill="#0774BA" stroke="#0774BA" stroke-width="0.0938" stroke-miterlimit="10" d="M99.38,126.65
		c7.07-3.04,14.76-5,22.49-4.88c-4.5,1.31-9.11,2.42-13.34,4.42c-1,0.54-2.15,1.04-2.73,2.08c-0.31,0.81,0.54,1.35,1.15,1.61
		c2.61,1.08,5.5,1.23,8.3,1.5c9.84,0.65,19.72,0.27,29.52-0.35c9.69-0.61,19.3-1.92,28.87-3.46c-2.11,1-4.27,2-6.23,3.27
		c-1,0.69-2.23,0.88-3.34,1.15c-11.76,2.61-23.83,3.42-35.82,3.61c-4.65,0.04-9.26-0.04-13.88-0.35
		c-5.15-0.35-10.34-0.73-15.37-2.08c-1.46-0.42-3-0.88-4.15-1.92c-0.58-0.46-0.58-1.38-0.08-1.92
		C96.04,128.03,97.8,127.42,99.38,126.65L99.38,126.65z"/>
	<path fill="#0774BA" stroke="#0774BA" stroke-width="0.0938" stroke-miterlimit="10" d="M108.45,143.06c2-1.58,4.38-2.46,6.77-3.31
		c-0.77,0.92-1.85,1.81-1.92,3.07c-0.04,0.81,0.62,1.42,1.27,1.81c1.27,0.65,2.69,0.88,4.11,1.08c7.38,0.77,14.84,1.19,22.29,0.69
		c6.8-0.35,13.57-1.46,20.3-2.65c1.84,1.73,4.04,2.92,6.34,3.96c-8.11,2.38-16.45,3.77-24.83,4.42c-7.92,0.54-15.95,0.5-23.83-0.77
		c-3.11-0.58-6.3-1.23-9.15-2.69c-1.15-0.62-2.46-1.42-2.81-2.77C106.76,144.75,107.61,143.72,108.45,143.06L108.45,143.06z"/>
	<path fill="#0774BA" stroke="#0774BA" stroke-width="0.0938" stroke-miterlimit="10" d="M112.91,159.82
		c1.77-1.42,3.96-2.15,6.11-2.77c-0.69,0.65-1.92,1.46-1.38,2.58c1.04,1.35,2.96,1.5,4.5,1.85c6.5,0.81,13.07,1.35,19.56,0.85
		c4.92-0.31,9.76-1.19,14.57-2.04c2.77,1.61,5.65,3,8.61,4.23c-4.54,2.04-9.42,3.34-14.3,4.27c-8.23,1.46-16.72,1.65-24.98,0.35
		c-3.65-0.65-7.38-1.5-10.69-3.31c-1.27-0.73-2.61-1.58-3.15-3C111.33,161.7,112.03,160.51,112.91,159.82L112.91,159.82z"/>
	<path fill="#0774BA" stroke="#0774BA" stroke-width="0.0938" stroke-miterlimit="10" d="M91.58,170.7
		c3.54-1.19,7.19-2.15,10.92-2.27c1.5-0.04,3.04,0.04,4.34,0.81c-4.46,0.27-8.92,1.38-12.91,3.42c-0.88,0.5-1.88,1.08-2.23,2.11
		c0,1.19,1.35,1.58,2.23,1.96c5.57,2.08,11.53,2.73,17.37,3.34c17.41,1.46,34.94,1.08,52.35-0.5c6.57-0.73,13.18-1.46,19.56-3.27
		c2.04-0.69,4.34-1.38,5.69-3.19c0.81-1.08,0.27-2.42-0.54-3.34c1.31,0.73,3.15,1.65,2.88,3.42c-0.5,1.84-2.38,2.81-3.92,3.69
		c-4.92,2.5-10.34,3.77-15.72,4.88c-15.64,3.07-31.67,3.77-47.59,3.31c-11.99-0.42-23.98-1.58-35.82-3.61
		c-2.11-0.5-4.5-0.92-6.03-2.58c-1-1.15-0.12-2.77,0.85-3.61C85.43,173.04,88.54,171.81,91.58,170.7L91.58,170.7z"/>
	<path fill="#0774BA" stroke="#0774BA" stroke-width="0.0938" stroke-miterlimit="10" d="M187.36,183.84
		c3.88-1.35,8.03-2.77,10.92-5.84c-0.5,3.34-3.38,5.65-6.23,7.15c-5.46,2.84-11.57,4.15-17.64,5.23
		c-12.84,2.04-25.87,2.54-38.9,2.31c-8.88-0.27-17.83-0.61-26.56-2.46c-2.08-0.58-4.3-0.96-6.11-2.19
		c7.76,1.31,15.64,1.85,23.52,2.15c12.95,0.38,25.95-0.11,38.82-1.73C172.64,187.42,180.14,186.15,187.36,183.84L187.36,183.84z"/>
	<path fill="#E92D2F" stroke="#E92D2F" stroke-width="0.0938" stroke-miterlimit="10" d="M86.08,240.85
		c0.04-12.61-0.04-25.21,0.04-37.86c2.61,0.08,5.23,0,7.84,0.08c-0.04,14.11,0,28.25-0.04,42.4c-0.08,3.96-0.15,8.11-2.08,11.65
		c-2.11,3.77-5.88,6.42-9.88,7.96c-1.27-1.38-2.42-2.84-3.69-4.23l0,0c3.23-1.88,6.46-4.57,7.23-8.46
		C86.23,248.57,86,244.69,86.08,240.85L86.08,240.85z"/>
	<path fill="#E92D2F" stroke="#E92D2F" stroke-width="0.0938" stroke-miterlimit="10" d="M101.23,218.17
		c5.19-2.23,10.95-3.38,16.6-2.77c2.92,0.35,5.96,1.42,7.84,3.77c1.58,2,2.15,4.57,2.11,7.07c0,8.61,0,17.18,0,25.79
		c-1.92,0-3.84,0-5.8,0c-0.19-1.27-0.38-2.57-0.54-3.88c-2.19,1.73-4.54,3.38-7.26,4.07c-3.11,0.81-6.53,0.73-9.57-0.46
		c-2.34-0.96-4.19-3.07-4.84-5.54c-0.96-3.57-0.46-7.76,2.08-10.65c2.27-2.65,5.69-3.96,9.07-4.57c3.11-0.62,6.3-0.62,9.49-0.62
		c-0.08-2.42,0.38-5.07-1-7.23c-1.11-1.65-3.15-2.31-5.04-2.42c-4.11-0.35-8.19,0.69-12.07,2.04
		C101.92,221.24,101.57,219.71,101.23,218.17 M110.76,236c-1.69,0.54-3.27,1.77-3.73,3.54c-0.54,1.96-0.38,4.27,0.88,5.92
		c1.23,1.61,3.46,2,5.38,1.77c2.69-0.31,5.04-1.85,7.11-3.5c0-2.88-0.04-5.73,0-8.61C117.18,235.12,113.87,234.93,110.76,236
		L110.76,236z"/>
	<path fill="#E92D2F" stroke="#E92D2F" stroke-width="0.0938" stroke-miterlimit="10" d="M168.8,218.17
		c5.23-2.23,10.99-3.42,16.68-2.77c2.84,0.35,5.77,1.38,7.65,3.61c1.77,2.11,2.31,4.92,2.27,7.61c-0.04,8.49,0.04,16.95-0.08,25.45
		c-1.92-0.08-3.84,0.04-5.77-0.08c-0.19-1.31-0.35-2.58-0.58-3.84c-2.69,2.31-5.92,4.19-9.57,4.5c-3.34,0.31-7.11-0.11-9.72-2.5
		c-2.73-2.54-3.19-6.65-2.5-10.15c0.65-3.23,3.07-5.88,6-7.3c4.57-2.23,9.8-2.34,14.8-2.31c-0.08-2.34,0.35-4.84-0.85-6.96
		c-0.92-1.69-2.88-2.46-4.73-2.65c-4.27-0.46-8.53,0.62-12.53,2C169.53,221.24,169.14,219.71,168.8,218.17 M178.22,236.04
		c-1.61,0.54-3.11,1.77-3.61,3.46c-0.54,1.96-0.38,4.27,0.85,5.96c1.27,1.65,3.54,2,5.5,1.77c2.65-0.38,5.07-1.85,7.07-3.61
		c-0.08-2.81-0.04-5.65-0.04-8.49C184.71,235.12,181.37,234.93,178.22,236.04L178.22,236.04z"/>
	<path fill="#E92D2F" stroke="#E92D2F" stroke-width="0.0938" stroke-miterlimit="10" d="M132.17,215.86c2.69,0,5.38,0,8.07,0
		c1.58,5.07,3.11,10.11,4.69,15.18c0.92,3.11,2.08,6.19,2.73,9.38c0.35,1.42,0.65,2.88,1.08,4.27c3.31-9.34,5.84-18.99,7.15-28.83
		c2.61,0,5.23,0,7.84,0c-2.27,12.45-5.84,24.71-11.22,36.17c-3.07,0-6.15,0-9.22,0C139.59,239.96,135.86,227.93,132.17,215.86
		L132.17,215.86z"/>
	<g>
		<path fill="#E92D2F" stroke="#E92D2F" stroke-width="0.0938" stroke-miterlimit="10" d="M196.93,215.16h-0.94v-0.34h2.3v0.34
			h-0.95v2.77h-0.41V215.16z"/>
		<path fill="#E92D2F" stroke="#E92D2F" stroke-width="0.0938" stroke-miterlimit="10" d="M201.25,216.57
			c-0.02-0.43-0.05-0.96-0.05-1.34h-0.01c-0.11,0.36-0.23,0.75-0.39,1.18l-0.55,1.51h-0.3l-0.51-1.48
			c-0.15-0.44-0.27-0.84-0.36-1.21h-0.01c-0.01,0.39-0.03,0.9-0.06,1.37l-0.08,1.33h-0.38l0.22-3.11h0.51l0.53,1.5
			c0.13,0.38,0.23,0.72,0.31,1.05h0.01c0.08-0.31,0.19-0.65,0.33-1.05l0.55-1.5h0.51l0.19,3.11h-0.4L201.25,216.57z"/>
	</g>
</g>
</svg>
