<?xml version="1.0"?>
<svg width="50" height="50" xmlns="http://www.w3.org/2000/svg" xmlns:svg="http://www.w3.org/2000/svg">
 <g class="layer">
  <title>Layer 1</title>
  <path d="m25,4l-21,13.34l0,15.31l21,13.35l21,-13.34l0,-15.32l-21,-13.34zm0,25.18l-5.93,-4.11l5.93,-4.05l5.93,4.05l-5.93,4.11zm2,-11.57l0,-7.66l13.43,8.53l-6.02,4.18l-7.41,-5.05zm-4,0l-7.41,5.05l-6.02,-4.18l13.43,-8.53l0,7.66zm-10.91,7.43l-4.09,2.79l0,-5.63l4.09,2.84zm3.48,2.41l7.43,5.16l0,7.44l-13.41,-8.52l5.98,-4.08zm11.43,5.16l7.43,-5.16l5.98,4.08l-13.41,8.52l0,-7.44zm10.91,-7.57l4.09,-2.84l0,5.63l-4.09,-2.79z" fill="#ffffff" id="svg_1"/>
 </g>
</svg>