<?xml version="1.0"?>
<svg width="50" height="50" xmlns="http://www.w3.org/2000/svg" xmlns:svg="http://www.w3.org/2000/svg">
 <g class="layer">
  <title>Layer 1</title>
  <path d="m41,4l-32,0c-2.76,0 -5,2.24 -5,5l0,32c0,2.76 2.24,5 5,5l32,0c2.76,0 5,-2.24 5,-5l0,-32c0,-2.76 -2.24,-5 -5,-5zm-24,16l0,19l-6,0l0,-19l6,0zm-6,-5.53c0,-1.4 1.2,-2.47 3,-2.47s2.93,1.07 3,2.47c0,1.4 -1.12,2.53 -3,2.53c-1.8,0 -3,-1.13 -3,-2.53zm28,24.53l-6,0c0,0 0,-9.26 0,-10c0,-2 -1,-4 -3.5,-4.04l-0.08,0c-2.42,0 -3.42,2.06 -3.42,4.04c0,0.91 0,10 0,10l-6,0l0,-19l6,0l0,2.56c0,0 1.93,-2.56 5.81,-2.56c3.97,0 7.19,2.73 7.19,8.26l0,10.74z" fill="#ffffff" id="svg_1"/>
 </g>
</svg>