<svg width="512" height="512" xmlns="http://www.w3.org/2000/svg" xml:space="preserve" version="1.1" enable-background="new 0 0 512 512">
 <g class="layer">
  <title>Layer 1</title>
  <rect transform="rotate(29.9962 355.5 376)" id="svg_25" height="66" width="173" y="343" x="269" stroke="null" fill="#f7f7f7"/>
  <g stroke="null" id="svg_24">
   <g stroke="null" id="XMLID_1_">
    <polygon stroke="null" fill="#E44D26" points="177.9396514892578,227.93984985351562 160.99777221679688,37.748077392578125 347.2403869628906,37.748077392578125 330.2984924316406,227.86798095703125 253.97531127929688,249.04661560058594 " id="XMLID_11_" class="st0"/>
    <polygon stroke="null" fill="#F16529" points="254.11907958984375,232.90585327148438 315.7651672363281,215.8150634765625 330.2984924316406,53.30338668823242 254.11907958984375,53.30338668823242 " id="XMLID_10_" class="st1"/>
    <polygon stroke="null" fill="#EBEBEB" points="254.11907958984375,123.8594741821289 223.22415161132812,123.8594741821289 221.1083526611328,99.97444152832031 254.11907958984375,99.97444152832031 254.11907958984375,76.68000793457031 254.0471954345703,76.68000793457031 195.61590576171875,76.68000793457031 196.20135498046875,82.88362121582031 201.89659118652344,147.1590576171875 254.11907958984375,147.1590576171875 " id="XMLID_9_" class="st2"/>
    <polygon stroke="null" fill="#EBEBEB" points="254.11907958984375,184.4065704345703 254.0471954345703,184.4835968017578 228.04635620117188,177.39666748046875 226.36705017089844,158.8473663330078 213.7286834716797,158.8473663330078 202.9904327392578,158.8473663330078 206.20523071289062,195.4375457763672 254.0471954345703,208.72808837890625 254.11907958984375,208.6562042236328 " id="XMLID_8_" class="st2"/>
    <polygon stroke="null" fill="#FFFFFF" points="254.0471954345703,123.8594741821289 254.0471954345703,147.1590576171875 282.749267578125,147.1590576171875 280.0480651855469,177.39666748046875 254.0471954345703,184.4065704345703 254.0471954345703,208.72808837890625 301.81207275390625,195.4375457763672 302.1767272949219,191.49349975585938 307.65625,130.14013671875 308.2417297363281,123.8594741821289 301.9610290527344,123.8594741821289 " id="XMLID_3_" class="st3"/>
    <polygon stroke="null" fill="#FFFFFF" points="254.0471954345703,76.68000793457031 254.0471954345703,91.1414566040039 254.0471954345703,99.90255737304688 254.0471954345703,99.97444152832031 310.2856140136719,99.97444152832031 310.2856140136719,99.97444152832031 310.3575134277344,99.97444152832031 310.8710632324219,94.71573638916016 311.8929748535156,82.88362121582031 312.47845458984375,76.68000793457031 " id="XMLID_2_" class="st3"/>
   </g>
   <g stroke="null" transform="matrix(-0.471119 -0.816001 0.816001 -0.471119 -102.225 605.39)">
    <g stroke="null" class="layer">
     <title>Layer 1</title>
     <g stroke="null" id="svg_1">
      <polygon stroke="null" fill="#1F72B5" points="33.84916019439697,452.81059569120407 15.959626197814941,251.9805480837822 212.61962604522705,251.9805480837822 194.73009967803955,452.7346984744072 114.13779926300049,475.09794920682907 " id="svg_12" class="st0"/>
      <polygon stroke="null" fill="#51A3DC" points="114.28965473175049,458.05437010526657 179.3838472366333,440.00758665800095 194.73009967803955,268.40593260526657 114.28965473175049,268.40593260526657 " id="svg_11" class="st1"/>
      <polygon stroke="null" fill="#EBEBEB" points="50.355896949768066,314.7592651247978 47.96445560455322,291.5446349978447 180.6148042678833,291.5446349978447 179.0747652053833,318.4629699587822 123.00392627716064,343.2176391482353 176.75924396514893,343.2176391482353 170.97321796417236,419.5694152712822 116.75693988800049,434.14564818143845 60.53429889678955,420.4966918826103 57.0637788772583,381.7785217165947 81.89977741241455,381.7785217165947 83.28799152374268,402.21672362089157 115.82967853546143,408.3118469119072 145.9094362258911,399.0552856326103 147.29765033721924,366.35634154081345 54.905518531799316,366.35634154081345 53.208237648010254,342.0626098513603 114.28965473175049,315.30153197050095 " id="svg_10" class="st2"/>
      <g stroke="null" id="svg_6">
       <polygon stroke="null" fill="#CECECE" points="53.208237648010254,342.0626098513603 54.905518531799316,366.35634154081345 114.28965473175049,366.35634154081345 114.28965473175049,315.30153197050095 " id="svg_9" class="st3"/>
       <polygon stroke="null" fill="#CECECE" points="83.28799152374268,402.21672362089157 81.89977741241455,381.7785217165947 57.0637788772583,381.7785217165947 60.53429889678955,420.4966918826103 114.28965473175049,433.5274536013603 114.28965473175049,408.0027648806572 " id="svg_8" class="st3"/>
       <polygon stroke="null" fill="#CECECE" points="47.96445560455322,291.5446349978447 50.355896949768066,314.7592651247978 114.28965473175049,315.30153197050095 114.28965473175049,291.5446349978447 " id="svg_7" class="st3"/>
      </g>
     </g>
    </g>
   </g>
   <g stroke="null" transform="matrix(-0.471119 0.816001 -0.816001 -0.471119 816.268 192.995)">
    <g stroke="null" transform="translate(4.988 -113.385)" id="svg_19">
     <path stroke="null" fill="#d4b830" d="m287.40269,534.61116l-18.3234,-202.78407l197.4,0.0774l-18.16942,202.55188l-80.68456,22.90996l-80.22262,-22.75516zm146.04828,-11.06799l15.32083,-173.68223l-80.83853,0l0.61591,191.56129l64.90179,-17.87905zm-73.06264,-148.21813l-19.63222,0l-0.23097,103.94619l-38.10959,-10.4488l0.07699,23.76134l57.89579,15.7119l0,-132.97062z" class="st0" id="svg_23"/>
     <path stroke="null" fill-opacity="0" fill="#ebebeb" opacity="0.986" d="m353.92125,506.3607c-2.54064,-0.77399 -15.08986,-4.17952 -27.87005,-7.66245l-23.17371,-6.26928l0,-11.68717c0,-11.45498 0,-11.68717 1.15484,-11.30018c0.61591,0.2322 9.08471,2.55415 18.78534,5.2631l17.6305,4.87611l0.15398,-51.857l0.15398,-51.857l19.24727,0l0,65.94352c0,52.39878 -0.15398,65.94352 -0.6929,65.94352c-0.38495,-0.0774 -2.8486,-0.69659 -5.38924,-1.39317z" class="st1" id="svg_22"/>
     <path stroke="null" fill-opacity="0.9216" fill="#ebebeb" opacity="0.986" d="m302.49255,492.58377l-0.07699,-23.76134s24.32855,6.88847 38.10959,10.4488l0.23097,-103.86879l19.63222,0l0,132.89323l-57.89579,-15.7119z" class="st2" id="svg_21"/>
     <path stroke="null" fill="#fdd83c" d="m367.93327,349.78354l80.83853,0l-15.32083,173.68223l-65.51771,17.87905l0,-191.56129zm61.3603,144.5804l5.31225,-64.93734l-39.26443,4.41171l0,-34.67453l41.88206,-0.1548l1.69376,-23.68394l-63.20803,0.30959l0.84688,86.22193l38.18658,-6.57887l-0.53892,19.19483l-38.49454,10.294l0.38495,23.52914l53.19945,-13.93173z" class="st3" id="svg_20"/>
    </g>
   </g>
  </g>
 </g>

</svg>