<svg width="1024" height="1024" xmlns="http://www.w3.org/2000/svg" xml:space="preserve" enable-background="new 0 0 1024 1024" version="1.1">
 <defs>
  <linearGradient spreadMethod="pad" y2="1" x2="1" y1="0" x1="0" id="svg_2">
   <stop offset="0" stop-opacity="0.99609" stop-color="#ffbf00"/>
   <stop offset="1" stop-opacity="0.99609" stop-color="#ff0000"/>
  </linearGradient>
 </defs>
 <g>
  <title>Layer 1</title>
  <path id="svg_1" d="m740.85176,976.85933c-8.08808,12.55352 -15.98976,24.76306 -23.84039,37.0053c-2.20558,3.43934 -4.37003,6.56199 -9.32348,5.70946c-4.7714,-0.82108 -5.34896,-4.33469 -6.40967,-8.12045c-8.42135,-30.05668 -17.09021,-60.04389 -25.55927,-90.08734c-11.48747,-40.75111 -22.37304,-81.68033 -34.49461,-122.24097c-6.19571,-20.73214 -16.25704,-40.01748 -31.39783,-55.79268c-7.33891,-7.64646 -17.69436,-11.46676 -27.48698,-15.55894c-11.39109,-4.76027 -23.82381,-5.06675 -35.58894,-8.21547c-12.45865,-3.33438 -25.1362,-3.57 -37.91737,-3.46486c-23.89197,0.19674 -47.78724,0.1439 -71.67974,-0.01737c-4.30858,-0.02902 -6.3095,1.50609 -7.71481,5.59195c-18.56184,53.96746 -37.26588,107.88599 -55.99432,161.79602c-15.07539,43.3947 -30.2438,86.75716 -45.32768,130.1489c-1.08164,3.11153 -2.59835,5.53306 -6.18317,5.8825c-3.54938,0.3461 -6.14201,-1.00906 -8.17565,-4.02828c-36.0138,-53.46498 -72.06318,-106.90608 -108.13982,-160.32876c-12.05969,-17.85819 -24.07259,-35.75147 -36.41684,-53.41202c-3.73656,-5.34573 -3.99124,-10.37254 -1.75582,-16.17491c8.96855,-23.27907 17.81698,-46.6046 26.68303,-69.92302c19.38418,-50.98207 38.72036,-101.98237 58.13704,-152.95207c14.36758,-37.7155 28.86036,-75.38331 43.24442,-113.09257c16.36421,-42.90059 32.70715,-85.80945 48.99181,-128.74032c25.07299,-66.09914 50.06387,-132.22943 75.13795,-198.32817c14.00471,-36.91833 28.19454,-73.76681 42.06903,-110.73379c2.02739,-5.40182 4.95286,-7.34768 10.72916,-7.30493c31.25738,0.23137 62.51782,0.1437 93.77648,-0.00061c4.65625,-0.0215 7.24069,1.70328 8.81712,6.09403c19.94791,55.55939 39.98076,111.08832 60.03204,166.61055c20.54074,56.87762 41.17965,113.71981 61.67472,170.6138c18.12468,50.31365 36.03875,100.70308 54.17618,151.01208c23.12748,64.15044 46.40109,128.2482 69.58187,192.37951c11.89581,32.91036 23.72347,65.84533 35.59099,98.76596c1.35817,3.76759 1.09827,7.04217 -1.24389,10.63883c-25.96642,39.87233 -51.77578,79.84711 -77.60613,119.80801c-12.08386,18.69421 -24.12134,37.4185 -36.38543,56.46065m-318.35297,-731.85735c-2.66711,7.04761 -5.35758,14.08649 -7.99777,21.14419c-22.38486,59.839 -44.73555,119.69082 -67.14646,179.5201c-20.64855,55.12448 -41.40185,110.20975 -62.02989,165.34189c-20.12336,53.78305 -40.12657,107.61109 -60.26244,161.3894c-1.24031,3.31262 -1.19463,5.98745 0.81027,9.05807c11.38635,17.43848 22.57238,35.00776 33.86626,52.50685c13.14397,20.36565 26.31432,40.71439 39.52472,61.03696c1.01255,1.55768 1.73928,3.70212 4.36892,3.54777c2.72557,-2.16669 3.04919,-5.56221 4.0171,-8.56334c2.42158,-7.50848 4.56196,-15.10703 6.92443,-22.63519c15.31123,-48.79057 30.64144,-97.57522 45.98578,-146.35534c11.57473,-36.79632 23.17761,-73.58389 34.77159,-110.37417c14.13067,-44.83993 28.2417,-89.68611 42.40614,-134.51538c9.4607,-29.94236 19.04093,-59.84695 28.49446,-89.79158c15.23471,-48.2569 30.43929,-96.5234 45.54995,-144.81917c1.18092,-3.77434 3.61948,-5.20253 7.11245,-5.29527c3.47098,-0.09218 5.63122,1.77527 6.69917,5.11416c10.22549,31.9684 20.53574,63.90974 30.72932,95.88829c14.38669,45.13243 28.6787,90.29505 43.04321,135.43457c8.59676,27.01433 17.22793,54.01781 25.9051,81.00638c2.05168,6.38164 3.76148,12.91837 7.30681,20.26748c1.49202,-2.99672 2.45409,-4.65802 3.17148,-6.41908c2.50383,-6.14675 4.91048,-12.33304 7.37655,-18.49525c11.80238,-29.49181 23.57003,-58.99771 35.47426,-88.4484c1.43543,-3.55106 1.55978,-6.71132 0.24352,-10.32998c-5.82573,-16.01619 -11.47544,-32.09695 -17.11457,-48.18037c-17.98808,-51.3051 -35.92471,-102.62823 -53.91714,-153.93182c-13.00396,-37.0795 -26.03768,-74.14866 -39.11033,-111.204c-8.89641,-25.21745 -17.98572,-50.36755 -26.72487,-75.63903c-1.40561,-4.06453 -3.56981,-5.12221 -7.49689,-5.07141c-11.85515,0.15333 -23.71774,0.18119 -35.56944,-0.09162c-4.39609,-0.10118 -6.3877,1.70536 -7.7717,5.66437c-4.02454,11.51245 -8.33433,22.92655 -12.62449,34.34456c-18.55321,49.3781 -37.13936,98.74382 -56.0155,148.89537m223.73375,395.27988c-2.16519,3.38644 -5.66387,3.50066 -9.07952,3.52626c-29.26416,0.21969 -58.5249,0.00151 -87.79281,0.84174c-24.23398,0.69574 -48.5037,0.13634 -72.75748,0.17877c-2.05563,0.00356 -4.34441,-0.51367 -6.13234,1.75178c3.29942,4.2093 7.44324,6.40901 12.86093,6.43513c28.54308,0.13733 57.07914,0.39742 85.61999,1.18336c10.05009,0.27675 18.56993,2.44324 26.55143,8.10624c2.77544,1.96917 5.90139,3.44145 8.69855,5.3837c9.54516,6.62766 20.75504,10.83195 28.76601,19.68854c5.41088,5.98206 11.06152,11.77528 16.10504,18.05448c6.1582,7.66692 14.35656,13.68259 18.75542,22.74855c6.42421,13.24038 12.6678,26.5682 19.0582,39.82516c1.02551,2.12761 1.56781,4.82436 4.44781,5.46982c2.1755,-1.91614 2.82373,-4.43984 3.6912,-6.73845c16.66431,-44.15584 33.24422,-88.3436 49.89747,-132.50358c1.01308,-2.68616 1.0317,-5.09162 -0.01841,-7.7912c-3.38098,-8.69125 -6.56272,-17.46014 -9.80683,-26.20448c-11.04736,-29.7779 -22.07979,-59.56146 -33.15683,-89.32838c-0.57303,-1.5399 -0.61238,-3.63712 -3.36348,-4.02677c-0.75509,1.51962 -1.66585,3.03883 -2.2948,4.66691c-6.14359,15.9039 -12.1898,31.84551 -18.36149,47.73842c-10.39492,26.76836 -20.86104,53.50907 -31.68804,80.99401m87.12095,129.12267c-6.92171,18.8412 -13.78485,37.70438 -20.82196,56.50235c-1.1875,3.17214 -1.53248,6.07838 -0.62218,9.37771c5.09867,18.47926 10.0562,36.99753 15.06039,55.50284c0.50078,1.8518 0.61488,3.98657 3.27096,4.37628c2.51023,-2.15411 3.92196,-5.09616 5.53234,-7.84838c20.73945,-35.44242 41.39086,-70.9365 62.21663,-106.32806c1.7098,-2.90585 1.4178,-5.38936 0.46176,-8.14487c-7.87286,-22.69249 -15.57557,-45.44691 -23.76064,-68.02643c-2.56608,-7.07863 -4.0248,-14.70396 -9.03023,-22.39713c-10.9623,29.5205 -21.48564,57.85903 -32.30706,86.98567z" fill="url(#svg_2)"/>
 </g>
</svg>