<?xml version="1.0"?>
<svg width="512" height="512" xmlns="http://www.w3.org/2000/svg" xmlns:svg="http://www.w3.org/2000/svg" enable-background="new 0 0 512 512" version="1.1" xml:space="preserve">
 <style type="text/css">.st0{fill:#E44D26;}
	.st1{fill:#F16529;}
	.st2{fill:#EBEBEB;}
	.st3{fill:#FFFFFF;}</style>
 <g class="layer">
  <title>Layer 1</title>
  <g id="XMLID_1_">
   <polygon class="st0" id="XMLID_11_" points="107.66,470.9 74.67,100.55 437.33,100.55 404.34,470.76 255.72,512  "/>
   <polygon class="st1" id="XMLID_10_" points="256,480.57 376.04,447.29 404.34,130.84 256,130.84  "/>
   <polygon class="st2" id="XMLID_9_" points="256,268.23 195.84,268.23 191.72,221.72 256,221.72 256,176.36 255.86,176.36    142.08,176.36 143.22,188.44 154.31,313.6 256,313.6  "/>
   <polygon class="st2" id="XMLID_8_" points="256,386.13 255.86,386.28 205.23,372.48 201.96,336.36 177.35,336.36 156.44,336.36    162.7,407.61 255.86,433.49 256,433.35  "/>
   <path d="m108.37,0l23.04,0l0,22.76l21.05,0l0,-22.76l23.04,0l0,68.98l-23.04,0l0,-23.18l-21.05,0l0,23.18l-23.04,0l0,-68.98l0,0z" fill="#ffffff" id="XMLID_7_" transform="matrix(1 0 0 1 0 0)"/>
   <path d="m205.94,22.9l-20.34,0l0,-22.9l63.72,0l0,22.9l-20.34,0l0,46.08l-23.04,0l0,-46.08l0,0z" fill="#ffffff" id="XMLID_6_" transform="matrix(1 0 0 1 0 0)"/>
   <path d="m259.56,0l24.04,0l14.79,24.32l14.78,-24.32l24.04,0l0,68.98l-22.9,0l0,-34.14l-15.93,24.6l-0.43,0l-15.93,-24.6l0,34.28l-22.61,0l0,-69.12l0.15,0z" fill="#ffffff" id="XMLID_5_" transform="matrix(1 0 0 1 0 0)"/>
   <path d="m348.73,0l23.04,0l0,46.22l32.43,0l0,22.76l-55.47,0l0,-68.98z" fill="#ffffff" id="XMLID_4_"/>
   <polygon class="st3" id="XMLID_3_" points="255.86,268.23 255.86,313.6 311.75,313.6 306.49,372.48 255.86,386.13 255.86,433.49    348.87,407.61 349.58,399.93 360.25,280.46 361.39,268.23 349.16,268.23  "/>
   <polygon class="st3" id="XMLID_2_" points="255.86,176.36 255.86,204.52 255.86,221.58 255.86,221.72 365.37,221.72 365.37,221.72    365.51,221.72 366.51,211.48 368.5,188.44 369.64,176.36  "/>
  </g>
 </g>
</svg>