<?xml version="1.0"?>
<svg width="50" height="50" xmlns="http://www.w3.org/2000/svg" xmlns:svg="http://www.w3.org/2000/svg">
 <g class="layer">
  <title>Layer 1</title>
  <path d="m38.01,4c-0.44,0 -0.83,0.27 -0.96,0.69l-4.98,15.31l-14.14,0l-4.98,-15.31c-0.13,-0.4 -0.5,-0.68 -0.93,-0.69c-0.42,-0.01 -0.81,0.25 -0.96,0.65l-5.99,15.99c0,0 0,0 -0.01,0.01l-3,8c-0.15,0.42 -0.01,0.89 0.35,1.16l22,15.99l0,0.01c0,0 0,0 0,0c0.02,0.01 0.03,0.02 0.04,0.03c0.02,0 0.03,0.02 0.05,0.02c0,0 0,0.01 0,0.01c0,0 0.01,0 0.01,0c0.01,0.01 0.01,0.01 0.02,0.01c0,0 0.01,0.01 0.01,0.01c0.02,0.01 0.05,0.02 0.07,0.03c0,0 0,0 0,0c0.02,0.01 0.05,0.02 0.07,0.03c0,0 0,0 0,0c0.02,0 0.03,0.01 0.05,0.01c0.01,0 0.02,0.01 0.03,0.01c0,0 0,0 0,0c0.02,0.01 0.04,0.01 0.06,0.01c0.03,0.01 0.05,0.01 0.08,0.02c0.04,0 0.08,0 0.12,0c0.04,0 0.07,0 0.11,-0.01c0.01,0 0.03,0 0.04,-0.01c0,0 0.01,0 0.01,0c0.01,0 0.01,0 0.02,0c0,0 0.01,0 0.01,0c0.01,-0.01 0.02,-0.01 0.03,-0.01c0.02,-0.01 0.03,-0.01 0.04,-0.01c0.01,0 0.01,0 0.02,-0.01c0,0 0,0 0.01,0c0.01,0 0.03,-0.01 0.05,-0.02c0.02,0 0.03,-0.01 0.05,-0.02c0,0 0,0 0.01,0c0,0 0.01,0 0.01,-0.01c0.01,0 0.02,-0.01 0.02,-0.01c0.03,-0.01 0.05,-0.02 0.07,-0.03c0,-0.01 0.01,-0.01 0.01,-0.02c0.01,0 0.01,0 0.01,0c0.02,-0.01 0.03,-0.02 0.05,-0.03l0.01,-0.01l21.99,-15.99c0.36,-0.27 0.5,-0.74 0.35,-1.16l-2.99,-7.97c-0.01,-0.01 -0.01,-0.02 -0.01,-0.03l-6,-16c-0.15,-0.39 -0.51,-0.65 -0.93,-0.65zm-26.08,4.03l3.89,11.97l-8.37,0l4.48,-11.97zm26.14,0l4.49,11.97l-8.38,0l3.89,-11.97zm-30,13.97l8.4,0l5.86,18.02l-14.26,-18.02zm10.51,0l12.84,0l-6.42,19.77l-6.42,-19.77zm14.95,0l8.4,0l-14.26,18.02l5.86,-18.02zm-27.22,1.01l13.38,16.89l-15.49,-11.26l2.11,-5.63zm37.38,0l2.11,5.63l-15.49,11.26l13.38,-16.89z" fill="#ffffff" id="svg_1"/>
 </g>
</svg>